<?xml version="1.0" encoding="UTF-8"?>
<svg id="Ebene_2" data-name="Ebene 2" xmlns="http://www.w3.org/2000/svg" viewBox="0 0 161.55 232.812">
  <defs>
    <style>
      .cls-1 {
        fill: #c14420;
      }
    </style>
  </defs>
  <g id="Ebene_1-2" data-name="Ebene 1">
    <path class="cls-1" d="M26.899,0c23.653,5.113,41.852,24.526,65.1,30.212,13.351,3.265,22.775-.453,26.528-14.269.602-2.216-.697-5.74,2.84-6.212,3.095-.413,4.594,2.055,6.878,2.81,4.95,1.636,25.462-1.781,27.423,1.697.755,1.34-.035,3.492.687,4.559,1.151,1.703,6.728-.372,4.791,5.097l-4.674,1.522-.346,191.236,4.043,1.564c2.281,4.273-2.841,5.188-3.749,6.8-.671,1.193-.133,2.831-1.073,4.172-2.689,3.84-14.092,3.955-18.39,3.35-1.743-.245-2.657-1.333-4.401-1.578-4.251-.598-9.638.491-14.145-.049-3.512-.421-4.307-3.014-7.79-3.783l-.872-9.625,2.157-.05c1.477-3.331-1.757-5.088-2.144-7.089-.55-2.843-.649-11.354-.788-14.958-.289-7.475,1.567-26.754-1.573-32.169-4.242-7.316-17.533-6.415-24.687-4.779-2.363.541-8.565,4.236-9.421,1.548-.799-2.512.078-9.401-.086-12.662-.515-10.261-1.827-22.876-1.573-32.974s11.672-18.002-.511-25.683c-19.955-6.312-38.614-18.492-59.947-19.265l-.703-9.419c-2.748-.388-.898,4.091-2.042,6.564-2.476,5.353-7.267-2.436-8.404-5.068.059-1.486-.086-3.017,0-4.5.006-.111.719-.843.781-1.811.907-14.152,2.351-28.263,3.783-42.35,4.745-1.765,6.733,1.727,10.356,3.66.628-1.908.331-5.156,1.162-6.746.257-.491,1.429-.694,1.844-1.32,1.915-2.893,3.559-5.879,5.96-8.433h2.986ZM79.153,123.748c-1.321-1.577,3.666-8.375,4.927-9.666,1.863-1.907,8.246-5.195,8.851-6.107.396-.597,1.784-5.687,2.096-6.922.192-.759.947-.862-.178-1.701-18.943-1.742-17.754,15.543-17.23,29.31.141,3.698.367,10.769.959,14.037,2.272,12.552,29.914,12.52,30.36-3.645-1.147-3.309-1.218-18.457-2.897-20.199-1.394-1.446-9.477-1.507-11.432-.943-3.014.871-8.593,8.831-11.373,8.852l-1.822-1.219.718-2.537-2.979.742Z"/>
  </g>
</svg>